# xmcd
#
# Track frame offsets:
#	150
#	10727
#	24396
#	35600
#	51269
#	62913
#	75107
#	88064
#	99131
#	112101
#	127235
#	140350
#	150895
#	167070
#	183774
#	195055
#	205982
#	216031
#	227689
#	242179
#	254356
#	276832
#	293735
#	303564
#
# Disc length: 4237 seconds
#
# Revision: 1
# Processed by: cddbd v1.5.2PL0 Copyright (c) Steve Scherf et al.
# Submitted via: audiograbber 1.83.01
#
DISCID=40108b18
DTITLE=Dinah Washington - The Very Best Of (1/3)
DYEAR=2006
DGENRE=
TTITLE0=Call Me Irresponsible
TTITLE1=Lover Man (Oh Where Can You Be)
TTITLE2=Fly Me To The Moon (In Other Words)
TTITLE3=These Foolish Things
TTITLE4=Destination Moon
TTITLE5=Why Was I Born?
TTITLE6=I'm Glad For Your Sake
TTITLE7=You're A Sweetheart
TTITLE8=That's My Desire
TTITLE9=I Used To Love You
TTITLE10=I'll Be Around
TTITLE11=Soulville
TTITLE12=That Sunday (That Summer)
TTITLE13=I Ran Out Of Reasons
TTITLE14=Just One More Chance
TTITLE15=To Forget About You
TTITLE16=Romance In The Dark
TTITLE17=No Hard Feelings
TTITLE18=He's My Guy
TTITLE19=The Key To The Highway
TTITLE20=How Long How Long Blues
TTITLE21=The Blues Ain't Nothing (But A Woman Crying For Her Man)
TTITLE22=I Left My Heart In San Francisco
TTITLE23=Say It Isn't So
EXTD=
EXTT0=
EXTT1=
EXTT2=
EXTT3=
EXTT4=
EXTT5=
EXTT6=
EXTT7=
EXTT8=
EXTT9=
EXTT10=
EXTT11=
EXTT12=
EXTT13=
EXTT14=
EXTT15=
EXTT16=
EXTT17=
EXTT18=
EXTT19=
EXTT20=
EXTT21=
EXTT22=
EXTT23=
PLAYORDER=
